# File created by Blade
# Date/Time:  Thu Sep 25 19:43:58 2014
# Frame Rate: 120.000 fps
#------------------------------------------------------
:FULLY-SPECIFIED
:DEGREES
393
root 2.022956 14.920738 -9.628971 33.956765 29.327072 -11.811629
Spine 12.461856 -5.710263 -31.501773
Head -33.480013 -6.841541 13.538985
LeftShoulder 0.383384 9.779185 19.745116
LeftArm 21.970299 6.225475 -46.747373
LeftForeArm 25.808826 -0.000000 33.255876
LeftHand -38.841050 -0.000000 66.656681
LeftHandThumb1 -26.253704 0.000000 33.147579
RightShoulder -15.937953 19.663234 -35.789363
RightArm -14.124722 15.517858 34.710066
RightForeArm -9.723412 -0.000000 15.518187
RightHand -9.374450 0.000000 -2.481654
RightHandThumb1 -24.326973 -0.000000 -32.862282
LeftUpLeg -136.932008 33.710321 -5.813305
LeftLeg 115.422042 -0.000000 -0.000000
LeftFoot -21.484163 -20.354356 -15.748962
LeftToeBase 0.685477 -0.000000 -0.000000
RightUpLeg -8.014761 -36.071215 -40.495648
RightLeg 9.302190 -0.000000 -0.000000
RightFoot -3.199613 -23.301232 29.912868
RightToeBase 7.420304 -0.000000 -0.000000
394
root 2.059167 14.880792 -9.635138 33.835104 29.179975 -11.766647
Spine 12.395623 -5.781790 -31.844283
Head -33.266552 -6.976797 13.276133
LeftShoulder 0.251355 9.890506 19.718408
LeftArm 21.748500 5.831128 -47.174113
LeftForeArm 26.044486 -0.000000 33.234954
LeftHand -38.877525 -0.000000 67.347099
LeftHandThumb1 -26.253704 0.000000 33.147579
RightShoulder -15.914004 19.731128 -35.957633
RightArm -13.909176 15.573005 34.452336
RightForeArm -9.470357 -0.000000 15.510383
RightHand -9.412738 0.000000 -2.643142
RightHandThumb1 -24.326973 -0.000000 -32.862282
LeftUpLeg -136.845345 33.769868 -5.792458
LeftLeg 115.664559 -0.000000 -0.000000
LeftFoot -21.665425 -20.376783 -15.846924
LeftToeBase 0.903865 -0.000000 -0.000000
RightUpLeg -7.984044 -35.645067 -40.733120
RightLeg 9.433752 -0.000000 -0.000000
RightFoot -3.275062 -23.598476 29.210933
RightToeBase 7.395146 -0.000000 -0.000000
395
root 2.095164 14.842099 -9.639074 33.689826 29.035959 -11.729413
Spine 12.353775 -5.818628 -32.154099
Head -33.030142 -7.177411 12.957183
LeftShoulder 0.198001 10.049473 19.616238
LeftArm 21.496127 5.327221 -47.560701
LeftForeArm 26.600769 -0.000000 33.237067
LeftHand -39.324902 -0.000000 68.163418
LeftHandThumb1 -26.253704 0.000000 33.147579
RightShoulder -15.919435 19.692030 -36.147062
RightArm -13.689012 15.770311 34.235811
RightForeArm -9.379623 -0.000000 15.596364
RightHand -9.448308 0.000000 -3.050954
RightHandThumb1 -24.326973 -0.000000 -32.862282
LeftUpLeg -136.739011 33.850999 -5.743031
LeftLeg 115.894896 -0.000000 -0.000000
LeftFoot -21.797738 -20.399195 -15.842033
LeftToeBase 0.941870 -0.000000 -0.000000
RightUpLeg -7.947400 -35.245917 -40.952886
RightLeg 9.531729 -0.000000 -0.000000
RightFoot -3.088799 -23.998809 28.050753
RightToeBase 7.818028 -0.000000 -0.000000
396
root 2.132713 14.803526 -9.643181 33.547840 28.863438 -11.718992
Spine 12.275203 -5.851523 -32.470241
Head -32.831315 -7.365902 12.670495
LeftShoulder 0.083297 10.102521 19.552446
LeftArm 21.172502 4.877149 -48.026674
LeftForeArm 26.652591 0.000000 33.236008
LeftHand -39.186383 0.000000 68.831156
LeftHandThumb1 -26.253704 0.000000 33.147579
RightShoulder -15.880839 19.796905 -36.280207
RightArm -13.538464 15.826393 33.906862
RightForeArm -9.217581 -0.000000 15.651881
RightHand -9.405091 -0.000000 -3.072014
RightHandThumb1 -24.326973 -0.000000 -32.862282
LeftUpLeg -136.656831 33.961949 -5.711309
LeftLeg 116.162079 -0.000000 -0.000000
LeftFoot -21.966260 -20.415549 -15.885106
LeftToeBase 1.115797 -0.000000 -0.000000
RightUpLeg -7.973423 -34.822772 -41.140189
RightLeg 9.677987 -0.000000 -0.000000
RightFoot -2.874054 -24.307077 26.860372
RightToeBase 7.603470 -0.000000 -0.000000
397
root 2.169636 14.768174 -9.646347 33.399623 28.710702 -11.712123
Spine 12.205269 -5.903609 -32.763665
Head -32.585429 -7.549292 12.319809
LeftShoulder 0.012194 10.283632 19.442253
LeftArm 20.910589 4.225460 -48.477123
LeftForeArm 26.701442 -0.000000 33.157114
LeftHand -38.795810 0.000000 69.934305
LeftHandThumb1 -26.253704 0.000000 33.147579
RightShoulder -15.789261 19.941219 -36.474370
RightArm -13.526743 15.840963 33.615074
RightForeArm -9.193730 0.000000 15.768702
RightHand -9.357620 -0.000000 -3.359031
RightHandThumb1 -24.326973 -0.000000 -32.862282
LeftUpLeg -136.569111 34.044742 -5.684081
LeftLeg 116.408714 -0.000000 -0.000000
LeftFoot -22.123481 -20.431719 -15.972349
LeftToeBase 1.297465 -0.000000 -0.000000
RightUpLeg -7.992473 -34.430466 -41.313433
RightLeg 9.810712 -0.000000 -0.000000
RightFoot -2.761173 -24.642430 25.923166
RightToeBase 7.726191 -0.000000 -0.000000
398
root 2.205547 14.734227 -9.650990 33.259437 28.538894 -11.730399
Spine 12.109695 -5.946219 -33.035050
Head -32.350095 -7.693874 11.943532
LeftShoulder -0.087818 10.356725 19.321366
LeftArm 20.568663 3.689389 -48.932125
LeftForeArm 26.807622 -0.000000 33.178396
LeftHand -38.753319 0.000000 70.477023
LeftHandThumb1 -26.253704 0.000000 33.147579
RightShoulder -15.699666 20.142142 -36.694624
RightArm -13.539666 15.703046 33.321695
RightForeArm -9.030993 -0.000000 15.865495
RightHand -9.372555 -0.000000 -3.474654
RightHandThumb1 -24.326973 -0.000000 -32.862282
LeftUpLeg -136.506171 34.175227 -5.647703
LeftLeg 116.643025 -0.000000 -0.000000
LeftFoot -22.207989 -20.488795 -16.020858
LeftToeBase 1.289984 -0.000000 -0.000000
RightUpLeg -8.062121 -34.011566 -41.451988
RightLeg 9.954441 -0.000000 -0.000000
RightFoot -2.606628 -25.041779 24.999051
RightToeBase 7.806264 -0.000000 -0.000000
